<svg width="1150" height="202" viewBox="0 0 1150 202" fill="none" xmlns="http://www.w3.org/2000/svg">
<path d="M136.313 96.1358C131.265 96.1358 127.164 92.0345 127.164 86.9865C127.164 81.9745 131.265 77.8732 136.313 77.8732C141.325 77.8732 145.427 81.9745 145.427 86.9865C145.427 92.0345 141.325 96.1358 136.313 96.1358ZM66.7679 77.8732C71.8159 77.8732 75.9172 81.9745 75.9172 86.9865C75.9172 92.0345 71.8159 96.1358 66.7679 96.1358C61.7545 96.1358 57.6545 92.0345 57.6545 86.9865C57.6545 81.9745 61.7545 77.8732 66.7679 77.8732ZM192.223 74.3332C191.207 71.3185 190.015 68.3385 188.683 65.4638C188.332 64.6225 187.912 63.7825 187.491 62.9412C179.008 45.8705 165.337 31.7785 148.512 22.6998C147.881 22.3492 147.215 21.9985 146.549 21.6825C143.569 20.1412 140.484 18.7732 137.329 17.5825H137.295C126.919 13.6212 115.703 11.4478 103.924 11.4478C91.7612 11.4478 80.1585 13.7612 69.5372 17.9678C66.9785 18.9492 64.5239 20.0358 62.1052 21.2625C61.3692 21.6132 60.6692 21.9638 59.9319 22.3838C43.6679 31.0078 30.2772 44.2918 21.6199 60.4865C21.3385 60.9772 21.0932 61.4678 20.8479 61.9945C19.9372 63.7465 19.0959 65.5345 18.3239 67.3572C13.5225 78.4345 10.8585 90.6318 10.8585 103.463C10.8585 154.289 52.5359 195.476 103.924 195.476C155.312 195.476 196.991 154.289 196.991 103.463C196.991 93.2972 195.308 83.4812 192.223 74.3332" fill="#ECB559"/>
<path d="M77.605 41.5551C65.9824 24.1284 51.2024 4.97644 31.9037 5.80444C15.8584 6.49377 2.10637 23.2151 1.31303 41.3338C0.518365 59.4524 11.693 76.9498 77.605 41.5551Z" fill="#ECB559"/>
<path d="M132.045 49.3556C134.753 32.4263 146.725 16.313 163.412 12.3796C180.1 8.44498 199.87 20.101 201.396 37.1783C202.838 53.3463 189.37 66.8543 175.758 75.697C172.873 77.5703 169.441 79.4263 166.16 78.3943C164.79 77.9636 163.625 77.0663 162.49 76.1876C150.922 67.2196 139.353 58.2516 132.045 49.3556Z" fill="#ECB559"/>
<path d="M101.82 166.873C101.792 166.873 101.766 166.869 101.738 166.869C98.5362 166.825 95.9776 164.193 96.0216 160.991L96.4429 130.967C96.4882 127.766 99.1816 125.25 102.32 125.254C105.523 125.298 108.082 127.931 108.036 131.131L107.616 161.157C107.571 164.329 104.983 166.873 101.82 166.873Z" fill="black"/>
<path d="M122.104 115.008H84.0135C80.8108 115.008 78.2161 112.41 78.2161 109.21C78.2161 106.008 80.8108 103.411 84.0135 103.411H122.104C125.307 103.411 127.901 106.008 127.901 109.21C127.901 112.41 125.307 115.008 122.104 115.008Z" fill="black"/>
<path d="M101.822 136.475C100.157 136.475 98.5033 135.759 97.3566 134.376L79.5513 112.91C77.5073 110.446 77.8473 106.792 80.3126 104.75C82.774 102.695 86.4286 103.042 88.4753 105.51L106.281 126.976C108.325 129.44 107.983 133.092 105.519 135.136C104.437 136.036 103.126 136.475 101.822 136.475Z" fill="black"/>
<path d="M104.295 136.475C102.991 136.475 101.681 136.036 100.598 135.136C98.1339 133.092 97.7925 129.44 99.8365 126.976L117.642 105.51C119.686 103.042 123.341 102.695 125.805 104.75C128.27 106.792 128.61 110.446 126.566 112.91L108.761 134.376C107.614 135.759 105.961 136.475 104.295 136.475Z" fill="black"/>
<path d="M16.0652 67.832C14.4065 67.832 12.7612 67.1254 11.6145 65.7547C-2.00949 49.468 -5.68149 23.904 11.7572 9.31603C28.7012 -4.85863 54.0158 -2.60263 68.1932 14.34C70.2465 16.7947 69.9212 20.452 67.4652 22.5067C65.0105 24.564 61.3532 24.2347 59.2998 21.7787C49.2265 9.74137 31.2385 8.13737 19.1958 18.2107C7.32384 28.14 10.5398 46.4 20.5078 58.316C22.5625 60.7707 22.2372 64.428 19.7812 66.4814C18.6958 67.3894 17.3758 67.832 16.0652 67.832Z" fill="black"/>
<path d="M190.204 74.7075C188.894 74.7075 187.574 74.2649 186.488 73.3569C184.032 71.3035 183.707 67.6462 185.762 65.1915C195.784 53.2102 197.92 32.2195 185.778 22.0609C173.734 11.9862 155.747 13.5849 145.672 25.6302C143.616 28.0862 139.963 28.4089 137.507 26.3569C135.051 24.3035 134.726 20.6462 136.779 18.1915C150.952 1.24486 176.274 -1.00581 193.216 13.1675C201.383 20.0009 205.799 30.3969 205.646 42.4462C205.51 53.4435 201.503 64.4449 194.655 72.6302C193.508 74.0009 191.862 74.7075 190.204 74.7075Z" fill="black"/>
<path d="M102.029 171.114C79.9384 171.114 61.965 153.139 61.965 131.05C61.965 127.848 64.5597 125.25 67.761 125.25C70.9637 125.25 73.5584 127.848 73.5584 131.05C73.5584 146.747 86.3304 159.516 102.029 159.516C117.728 159.516 130.5 146.747 130.5 131.05C130.5 127.848 133.094 125.25 136.297 125.25C139.498 125.25 142.093 127.848 142.093 131.05C142.093 153.139 124.12 171.114 102.029 171.114Z" fill="black"/>
<path d="M16.677 104.303C16.677 88.5994 20.9183 73.8767 28.385 61.2581V61.2234C37.253 46.0447 50.6783 33.9167 66.7677 26.5914C77.529 21.6834 89.4823 18.9487 102.032 18.9487C115.948 18.9487 129.128 22.3141 140.765 28.2381C158.888 37.5274 173.294 53.0554 181.006 72.0194C185.142 81.9741 187.385 92.8767 187.385 104.303C187.385 151.379 149.108 189.658 102.032 189.658C54.9543 189.658 16.677 151.379 16.677 104.303ZM193.87 73.3514C192.818 70.1261 191.592 67.0074 190.154 63.9567C189.734 62.9407 189.244 61.9594 188.753 60.9781C180.305 44.1874 167.16 30.1661 151.036 20.7021C150.369 20.2807 149.669 19.8607 149.002 19.5101C146.022 17.8274 142.904 16.3207 139.749 14.9887C128.146 10.0807 115.386 7.34606 102.032 7.34606C89.9023 7.34606 78.301 9.59007 67.609 13.6914C64.489 14.8474 61.4743 16.1794 58.5303 17.6874C57.829 18.0381 57.093 18.3887 56.3917 18.7741C40.5837 27.2567 27.3677 39.9807 18.325 55.4394C17.133 57.4381 16.0463 59.5047 15.029 61.6087H14.9943C14.153 63.2914 13.3823 64.9741 12.681 66.7261C7.77301 78.2941 5.07434 90.9834 5.07434 104.303C5.07434 157.759 48.5757 201.261 102.032 201.261C155.488 201.261 198.988 157.759 198.988 104.303C198.988 93.4714 197.201 83.0607 193.87 73.3514Z" fill="black"/>
<path d="M145.427 86.9871C145.427 92.0351 141.326 96.1365 136.314 96.1365C131.266 96.1365 127.164 92.0351 127.164 86.9871C127.164 81.9751 131.266 77.8738 136.314 77.8738C141.326 77.8738 145.427 81.9751 145.427 86.9871Z" fill="#212323"/>
<path d="M75.9167 86.9871C75.9167 92.0351 71.8153 96.1365 66.7673 96.1365C61.7553 96.1365 57.654 92.0351 57.654 86.9871C57.654 81.9751 61.7553 77.8738 66.7673 77.8738C71.8153 77.8738 75.9167 81.9751 75.9167 86.9871Z" fill="#212323"/>
<path d="M329.258 44.1549C325.226 42.1375 321.195 41.1322 315.952 41.1322C310.712 41.1322 307.487 42.3429 305.067 44.3549C301.036 47.9842 300.431 54.4349 300.431 62.7016V73.9922H327.646V91.9336H300.431V175.998H279.666V91.9336H268.175V73.9922H279.666V60.8856C279.666 50.0002 281.683 40.7269 286.319 34.0749C291.56 26.6176 300.027 22.3842 313.938 22.3842C321.195 22.3842 329.058 24.3976 335.306 27.2189L329.258 44.1549Z" fill="#212323"/>
<path d="M379.258 90.3187C361.114 90.3187 348.011 105.843 348.011 124.996C348.011 143.944 361.114 159.668 379.258 159.668C397.401 159.668 410.505 143.944 410.505 124.996C410.505 105.843 397.401 90.3187 379.258 90.3187ZM431.673 124.996C431.673 154.829 409.295 178.416 379.258 178.416C349.018 178.416 326.843 154.829 326.843 124.996C326.843 95.1574 349.018 71.5707 379.258 71.5707C409.295 71.5707 431.673 95.1574 431.673 124.996" fill="#212323"/>
<path d="M522.399 167.731C514.334 174.587 502.643 178.416 489.942 178.416C460.508 178.416 437.73 157.05 437.73 124.995C437.73 95.1576 460.711 71.5709 490.747 71.5709C502.44 71.5709 512.723 74.9989 521.391 81.2496L511.311 97.5789C505.463 93.1416 498.207 90.3189 490.747 90.3189C473.008 90.3189 458.898 105.843 458.898 124.995C458.898 145.76 473.814 159.668 490.747 159.668C497.603 159.668 506.271 156.846 511.915 152.411L522.399 167.731Z" fill="#212323"/>
<path d="M604.051 175.998L603.447 159.873C595.786 171.765 583.488 178.415 570.387 178.415C556.879 178.415 547.403 173.581 541.355 165.514C534.3 155.839 532.284 142.331 532.284 127.011V73.9926H553.048V125.195C553.048 134.469 553.451 144.749 557.887 151.806C560.911 156.645 566.354 159.669 574.619 159.669C585.506 159.669 596.391 152.21 603.044 141.526V73.9926H623.808V175.998H604.051Z" fill="#212323"/>
<path d="M697.198 96.3684C692.56 92.135 684.295 88.5057 677.039 88.5057C668.774 88.5057 663.128 93.3457 663.128 100.602C663.128 108.059 672.402 111.688 681.876 115.52C695.18 120.762 711.711 128.018 711.711 146.16C711.711 168.942 693.57 178.415 674.216 178.415C659.7 178.415 646.395 172.774 637.524 162.09L651.235 150.194C658.29 157.451 665.346 161.28 674.014 161.28C682.884 161.28 690.947 156.846 690.947 147.371C690.947 139.508 681.675 135.88 671.594 131.847C658.29 126.407 643.17 120.356 643.17 102.214C643.17 81.4497 659.5 71.571 677.039 71.571C689.132 71.571 700.825 75.6044 709.293 83.2657L697.198 96.3684Z" fill="#212323"/>
<path d="M790.072 144.954C796.927 154.628 808.216 159.668 818.296 159.668C840.472 159.668 850.953 141.526 850.953 124.795C850.953 106.648 838.656 90.3189 818.699 90.3189C808.216 90.3189 795.315 96.3683 790.072 108.464V144.954ZM790.072 24.8016V87.0949C797.329 76.8149 810.433 71.5709 822.125 71.5709C850.953 71.5709 872.121 95.3616 872.121 125.196C872.121 152.611 851.963 178.416 821.721 178.416C810.031 178.416 797.532 173.376 789.467 164.507L789.064 175.998H769.308V24.8016H790.072Z" fill="#212323"/>
<path d="M929.382 88.907C913.658 88.907 903.983 99.9964 900.353 114.31H954.783C953.977 100.402 943.695 88.907 929.382 88.907ZM929.987 160.879C943.495 160.879 953.371 155.839 959.622 144.75L974.137 154.227C963.654 170.758 949.946 178.415 928.979 178.415C896.926 178.415 878.178 155.234 878.178 125.195C878.178 94.7564 900.353 71.571 928.979 71.571C956.397 71.571 976.354 91.7297 976.354 118.946C976.354 122.574 975.95 127.212 975.347 130.235H899.143C900.555 146.97 911.843 160.879 929.987 160.879" fill="#212323"/>
<path d="M1049.94 130.035C1042.89 128.624 1037.65 128.219 1032.61 128.219C1020.71 128.219 1005.19 131.445 1005.19 145.96C1005.19 157.451 1014.06 161.885 1024.14 161.885C1034.02 161.885 1042.28 157.049 1049.94 150.599V130.035ZM1051.55 175.997L1050.95 165.717C1043.09 174.787 1033.61 178.416 1021.12 178.416C1002.17 178.416 984.826 168.741 984.826 146.971C984.826 121.367 1007.81 113.304 1029.98 113.304C1035.23 113.304 1041.68 113.905 1049.94 115.521V112.493C1049.94 97.5787 1043.09 88.9067 1026.76 88.9067C1015.07 88.9067 1003.17 93.3453 994.705 97.98L988.86 81.2493C999.946 76.0053 1015.67 71.5707 1029.98 71.5707C1059.22 71.5707 1070.71 87.7 1070.71 114.109V175.997H1051.55Z" fill="#212323"/>
<path d="M1112.24 89.9176C1118.29 79.2322 1127.36 71.5709 1138.05 71.5709C1142.48 71.5709 1145.91 71.9762 1149.74 72.9816L1145.51 93.9509C1142.48 92.3349 1139.66 91.7296 1135.83 91.7296C1125.95 91.7296 1118.29 97.5789 1112.65 107.455V175.998H1091.88V73.9922H1111.64L1112.24 89.9176Z" fill="#212323"/>
</svg>
